<svg width="2em" height="1em" viewBox="0 0 139 72" fill="none" xmlns="http://www.w3.org/2000/svg">
<path d="M9.51562 21H7.45312V5.35938H9.51562V21ZM14.8652 9.37695L14.9297 10.8379C15.8177 9.7207 16.9779 9.16211 18.4102 9.16211C20.8665 9.16211 22.1055 10.5479 22.127 13.3193V21H20.1396V13.3086C20.1325 12.4707 19.9391 11.8512 19.5596 11.4502C19.1872 11.0492 18.6035 10.8486 17.8086 10.8486C17.1641 10.8486 16.5983 11.0205 16.1113 11.3643C15.6243 11.708 15.2448 12.1592 14.9727 12.7178V21H12.9854V9.37695H14.8652ZM24.6406 15.0918C24.6406 13.3086 25.0632 11.8763 25.9082 10.7949C26.7533 9.70638 27.8597 9.16211 29.2275 9.16211C30.5882 9.16211 31.666 9.6276 32.4609 10.5586V4.5H34.4482V21H32.6221L32.5254 19.7539C31.7305 20.7279 30.624 21.2148 29.2061 21.2148C27.8597 21.2148 26.7604 20.6634 25.9082 19.5605C25.0632 18.4577 24.6406 17.0182 24.6406 15.2422V15.0918ZM26.6279 15.3174C26.6279 16.6351 26.9001 17.6663 27.4443 18.4111C27.9886 19.1559 28.7406 19.5283 29.7002 19.5283C30.9606 19.5283 31.8809 18.9626 32.4609 17.8311V12.4922C31.8665 11.3965 30.9535 10.8486 29.7217 10.8486C28.7477 10.8486 27.9886 11.2246 27.4443 11.9766C26.9001 12.7285 26.6279 13.8421 26.6279 15.3174ZM39.7012 21H37.7139V9.37695H39.7012V21ZM37.5527 6.29395C37.5527 5.97168 37.6494 5.69954 37.8428 5.47754C38.0433 5.25553 38.3369 5.14453 38.7236 5.14453C39.1104 5.14453 39.404 5.25553 39.6045 5.47754C39.805 5.69954 39.9053 5.97168 39.9053 6.29395C39.9053 6.61621 39.805 6.88477 39.6045 7.09961C39.404 7.31445 39.1104 7.42188 38.7236 7.42188C38.3369 7.42188 38.0433 7.31445 37.8428 7.09961C37.6494 6.88477 37.5527 6.61621 37.5527 6.29395ZM50.0674 21C49.9528 20.7708 49.8597 20.3626 49.7881 19.7754C48.8643 20.735 47.7614 21.2148 46.4795 21.2148C45.3337 21.2148 44.3919 20.8926 43.6543 20.248C42.9238 19.5964 42.5586 18.7728 42.5586 17.7773C42.5586 16.5671 43.0169 15.6289 43.9336 14.9629C44.8574 14.2897 46.1536 13.9531 47.8223 13.9531H49.7559V13.04C49.7559 12.3454 49.5482 11.7939 49.1328 11.3857C48.7174 10.9704 48.1051 10.7627 47.2959 10.7627C46.5869 10.7627 45.9925 10.9417 45.5127 11.2998C45.0329 11.6579 44.793 12.0911 44.793 12.5996H42.7949C42.7949 12.0195 42.999 11.4609 43.4072 10.9238C43.8226 10.3796 44.3812 9.94987 45.083 9.63477C45.792 9.31966 46.569 9.16211 47.4141 9.16211C48.7533 9.16211 49.8024 9.4987 50.5615 10.1719C51.3206 10.8379 51.7145 11.7581 51.7432 12.9326V18.2822C51.7432 19.3493 51.8792 20.1979 52.1514 20.8281V21H50.0674ZM46.7695 19.4854C47.3926 19.4854 47.9834 19.3242 48.542 19.002C49.1006 18.6797 49.5052 18.2607 49.7559 17.7451V15.3604H48.1982C45.7633 15.3604 44.5459 16.0729 44.5459 17.498C44.5459 18.1211 44.7536 18.6081 45.1689 18.959C45.5843 19.3099 46.1178 19.4854 46.7695 19.4854ZM69.2637 16.918H62.7109L61.2393 21H59.1123L65.085 5.35938H66.8896L72.873 21H70.7568L69.2637 16.918ZM63.334 15.2207H68.6514L65.9873 7.90527L63.334 15.2207ZM74.1943 15.0918C74.1943 13.2799 74.6133 11.8405 75.4512 10.7734C76.2891 9.69922 77.3991 9.16211 78.7812 9.16211C80.1992 9.16211 81.3057 9.66341 82.1006 10.666L82.1973 9.37695H84.0127V20.7207C84.0127 22.2246 83.5651 23.4098 82.6699 24.2764C81.7819 25.1429 80.5859 25.5762 79.082 25.5762C78.2441 25.5762 77.4242 25.3971 76.6221 25.0391C75.82 24.681 75.2077 24.1904 74.7852 23.5674L75.8164 22.375C76.6686 23.4277 77.7106 23.9541 78.9424 23.9541C79.9092 23.9541 80.6611 23.682 81.1982 23.1377C81.7425 22.5934 82.0146 21.8271 82.0146 20.8389V19.8398C81.2197 20.7565 80.1348 21.2148 78.7598 21.2148C77.3991 21.2148 76.2962 20.667 75.4512 19.5713C74.6133 18.4756 74.1943 16.9824 74.1943 15.0918ZM76.1924 15.3174C76.1924 16.6279 76.4609 17.6592 76.998 18.4111C77.5352 19.1559 78.2871 19.5283 79.2539 19.5283C80.5072 19.5283 81.4274 18.959 82.0146 17.8203V12.5137C81.4059 11.4036 80.4928 10.8486 79.2754 10.8486C78.3086 10.8486 77.5531 11.2246 77.0088 11.9766C76.4645 12.7285 76.1924 13.8421 76.1924 15.3174ZM94.1963 21C94.0817 20.7708 93.9886 20.3626 93.917 19.7754C92.9932 20.735 91.8903 21.2148 90.6084 21.2148C89.4626 21.2148 88.5208 20.8926 87.7832 20.248C87.0527 19.5964 86.6875 18.7728 86.6875 17.7773C86.6875 16.5671 87.1458 15.6289 88.0625 14.9629C88.9863 14.2897 90.2826 13.9531 91.9512 13.9531H93.8848V13.04C93.8848 12.3454 93.6771 11.7939 93.2617 11.3857C92.8464 10.9704 92.234 10.7627 91.4248 10.7627C90.7158 10.7627 90.1214 10.9417 89.6416 11.2998C89.1618 11.6579 88.9219 12.0911 88.9219 12.5996H86.9238C86.9238 12.0195 87.1279 11.4609 87.5361 10.9238C87.9515 10.3796 88.5101 9.94987 89.2119 9.63477C89.9209 9.31966 90.6979 9.16211 91.543 9.16211C92.8822 9.16211 93.9313 9.4987 94.6904 10.1719C95.4495 10.8379 95.8434 11.7581 95.8721 12.9326V18.2822C95.8721 19.3493 96.0081 20.1979 96.2803 20.8281V21H94.1963ZM90.8984 19.4854C91.5215 19.4854 92.1123 19.3242 92.6709 19.002C93.2295 18.6797 93.6341 18.2607 93.8848 17.7451V15.3604H92.3271C89.8923 15.3604 88.6748 16.0729 88.6748 17.498C88.6748 18.1211 88.8825 18.6081 89.2979 18.959C89.7132 19.3099 90.2467 19.4854 90.8984 19.4854ZM101.146 21H99.1592V9.37695H101.146V21ZM98.998 6.29395C98.998 5.97168 99.0947 5.69954 99.2881 5.47754C99.4886 5.25553 99.7822 5.14453 100.169 5.14453C100.556 5.14453 100.849 5.25553 101.05 5.47754C101.25 5.69954 101.351 5.97168 101.351 6.29395C101.351 6.61621 101.25 6.88477 101.05 7.09961C100.849 7.31445 100.556 7.42188 100.169 7.42188C99.7822 7.42188 99.4886 7.31445 99.2881 7.09961C99.0947 6.88477 98.998 6.61621 98.998 6.29395ZM106.217 9.37695L106.281 10.8379C107.169 9.7207 108.329 9.16211 109.762 9.16211C112.218 9.16211 113.457 10.5479 113.479 13.3193V21H111.491V13.3086C111.484 12.4707 111.291 11.8512 110.911 11.4502C110.539 11.0492 109.955 10.8486 109.16 10.8486C108.516 10.8486 107.95 11.0205 107.463 11.3643C106.976 11.708 106.596 12.1592 106.324 12.7178V21H104.337V9.37695H106.217ZM123.243 17.917C123.243 17.3799 123.039 16.9645 122.631 16.6709C122.23 16.3701 121.524 16.1123 120.515 15.8975C119.512 15.6826 118.714 15.4248 118.119 15.124C117.532 14.8232 117.095 14.4652 116.809 14.0498C116.529 13.6344 116.39 13.1403 116.39 12.5674C116.39 11.6149 116.791 10.8092 117.593 10.1504C118.402 9.49154 119.433 9.16211 120.687 9.16211C122.004 9.16211 123.071 9.50228 123.888 10.1826C124.711 10.863 125.123 11.7331 125.123 12.793H123.125C123.125 12.2487 122.892 11.7796 122.427 11.3857C121.968 10.9919 121.388 10.7949 120.687 10.7949C119.963 10.7949 119.397 10.9525 118.989 11.2676C118.581 11.5827 118.377 11.9945 118.377 12.5029C118.377 12.9827 118.567 13.3444 118.946 13.5879C119.326 13.8314 120.01 14.0641 120.998 14.2861C121.993 14.5081 122.799 14.7731 123.415 15.0811C124.031 15.389 124.486 15.7614 124.779 16.1982C125.08 16.6279 125.23 17.1543 125.23 17.7773C125.23 18.8158 124.815 19.6501 123.984 20.2803C123.154 20.9033 122.076 21.2148 120.751 21.2148C119.82 21.2148 118.996 21.0501 118.28 20.7207C117.564 20.3913 117.002 19.9329 116.594 19.3457C116.193 18.7513 115.992 18.1104 115.992 17.4229H117.979C118.015 18.0889 118.28 18.6188 118.774 19.0127C119.276 19.3994 119.935 19.5928 120.751 19.5928C121.503 19.5928 122.104 19.4424 122.556 19.1416C123.014 18.8337 123.243 18.4255 123.243 17.917ZM130.516 6.5625V9.37695H132.686V10.9131H130.516V18.1211C130.516 18.5866 130.612 18.9375 130.806 19.1738C130.999 19.403 131.328 19.5176 131.794 19.5176C132.023 19.5176 132.338 19.4746 132.739 19.3887V21C132.216 21.1432 131.708 21.2148 131.214 21.2148C130.326 21.2148 129.656 20.9463 129.205 20.4092C128.754 19.8721 128.528 19.1094 128.528 18.1211V10.9131H126.412V9.37695H128.528V6.5625H130.516Z" fill="white"/>
<path d="M29.1172 49.1719C28.6953 52.7812 27.3594 55.5703 25.1094 57.5391C22.875 59.4922 19.8984 60.4688 16.1797 60.4688C12.1484 60.4688 8.91406 59.0234 6.47656 56.1328C4.05469 53.2422 2.84375 49.375 2.84375 44.5312V41.25C2.84375 38.0781 3.40625 35.2891 4.53125 32.8828C5.67188 30.4766 7.28125 28.6328 9.35938 27.3516C11.4375 26.0547 13.8438 25.4062 16.5781 25.4062C20.2031 25.4062 23.1094 26.4219 25.2969 28.4531C27.4844 30.4688 28.7578 33.2656 29.1172 36.8438H24.5938C24.2031 34.125 23.3516 32.1562 22.0391 30.9375C20.7422 29.7188 18.9219 29.1094 16.5781 29.1094C13.7031 29.1094 11.4453 30.1719 9.80469 32.2969C8.17969 34.4219 7.36719 37.4453 7.36719 41.3672V44.6719C7.36719 48.375 8.14062 51.3203 9.6875 53.5078C11.2344 55.6953 13.3984 56.7891 16.1797 56.7891C18.6797 56.7891 20.5938 56.2266 21.9219 55.1016C23.2656 53.9609 24.1562 51.9844 24.5938 49.1719H29.1172ZM61.5312 44.0391C61.5312 47.3828 60.9688 50.3047 59.8438 52.8047C58.7188 55.2891 57.125 57.1875 55.0625 58.5C53 59.8125 50.5938 60.4688 47.8438 60.4688C45.1562 60.4688 42.7734 59.8125 40.6953 58.5C38.6172 57.1719 37 55.2891 35.8438 52.8516C34.7031 50.3984 34.1172 47.5625 34.0859 44.3438V41.8828C34.0859 38.6016 34.6562 35.7031 35.7969 33.1875C36.9375 30.6719 38.5469 28.75 40.625 27.4219C42.7188 26.0781 45.1094 25.4062 47.7969 25.4062C50.5312 25.4062 52.9375 26.0703 55.0156 27.3984C57.1094 28.7109 58.7188 30.625 59.8438 33.1406C60.9688 35.6406 61.5312 38.5547 61.5312 41.8828V44.0391ZM57.0547 41.8359C57.0547 37.7891 56.2422 34.6875 54.6172 32.5312C52.9922 30.3594 50.7188 29.2734 47.7969 29.2734C44.9531 29.2734 42.7109 30.3594 41.0703 32.5312C39.4453 34.6875 38.6094 37.6875 38.5625 41.5312V44.0391C38.5625 47.9609 39.3828 51.0469 41.0234 53.2969C42.6797 55.5312 44.9531 56.6484 47.8438 56.6484C50.75 56.6484 53 55.5938 54.5938 53.4844C56.1875 51.3594 57.0078 48.3203 57.0547 44.3672V41.8359ZM79.0625 54.0234L88.8125 25.875H93.7344L81.0781 60H77.0938L64.4609 25.875H69.3594L79.0625 54.0234ZM103.156 60H98.6562V25.875H103.156V60ZM111.406 60V25.875H121.039C124.008 25.875 126.633 26.5312 128.914 27.8438C131.195 29.1562 132.953 31.0234 134.188 33.4453C135.438 35.8672 136.07 38.6484 136.086 41.7891V43.9688C136.086 47.1875 135.461 50.0078 134.211 52.4297C132.977 54.8516 131.203 56.7109 128.891 58.0078C126.594 59.3047 123.914 59.9688 120.852 60H111.406ZM115.906 29.5781V56.3203H120.641C124.109 56.3203 126.805 55.2422 128.727 53.0859C130.664 50.9297 131.633 47.8594 131.633 43.875V41.8828C131.633 38.0078 130.719 35 128.891 32.8594C127.078 30.7031 124.5 29.6094 121.156 29.5781H115.906Z" fill="white"/>
</svg>
